<svg xmlns="http://www.w3.org/2000/svg" width="27.249" height="32.782" viewBox="0 0 27.249 32.782">
  <g id="Group_838" data-name="Group 838" transform="translate(-393.425 -69.557)">
    <path id="Path_8235" data-name="Path 8235" d="M395.288,127.93s10.823,5.307,24.664,0a9.285,9.285,0,0,1,.728,3.122,14.785,14.785,0,0,0-8.117,2.29c-3.643,2.5-2.706,3.33-5,3.33s-2.29-2.6-4.475-3.33-8.325-2.81-8.325-2.81Z" transform="translate(-0.974 -42.346)" fill="#8c8c99"/>
    <path id="Path_8236" data-name="Path 8236" d="M437.6,154.084l.624,9.574h1.041l.52-9.574Z" transform="translate(-32.046 -61.319)" fill="#8c8c99"/>
    <path id="Path_8237" data-name="Path 8237" d="M393.794,137.406s-1.665,8.742,2.081,14.153c0,0-1.873-9.574-.416-14.153Z" transform="translate(0 -49.221)" fill="#8c8c99"/>
    <path id="Path_8238" data-name="Path 8238" d="M396.663,85.584a23.991,23.991,0,0,0,1.561-16.027s3.643,7.082,0,16.654L397,87.04Z" transform="translate(-2.349)" fill="#8c8c99"/>
    <path id="Path_8239" data-name="Path 8239" d="M477.38,85.584a22.081,22.081,0,0,1-1.457-16.027s-4.661,8.534.272,17.483Z" transform="translate(-58.401)" fill="#8c8c99"/>
    <path id="Path_8240" data-name="Path 8240" d="M485.3,137.926s2.6,7.285-.728,13.321c0,0,1.98-4.585-.729-13.841Z" transform="translate(-65.593 -49.221)" fill="#8c8c99"/>
    <path id="Path_8241" data-name="Path 8241" d="M440.383,117.7c-.994,0-.781,1.977,0,1.977S441.372,117.7,440.383,117.7Z" transform="translate(-33.581 -34.922)" fill="#8c8c99"/>
  </g>
</svg>
