<svg xmlns="http://www.w3.org/2000/svg" width="34.574" height="34.223" viewBox="0 0 34.574 34.223">
  <g id="Group_836" data-name="Group 836" transform="translate(-630.68 -64.409)">
    <path id="Path_8231" data-name="Path 8231" d="M657.275,64.409H638.658a8,8,0,0,0-7.979,7.979V90.653a8,8,0,0,0,7.979,7.979h18.617a8,8,0,0,0,7.979-7.979V72.388A8,8,0,0,0,657.275,64.409Zm.337,29.9H638.321a.66.66,0,0,1,0-1.321h19.291a.66.66,0,1,1,0,1.321Zm0-3.158H638.321a.66.66,0,0,1,0-1.321h19.291a.66.66,0,1,1,0,1.321Zm0-3.158H638.321a.66.66,0,0,1,0-1.32h19.291a.66.66,0,1,1,0,1.32Zm-2.664-9.142a16.141,16.141,0,0,0-14.128,0L637.661,72.2s8.311-6.649,20.611,0Z" transform="translate(0 0)" fill="#8c8c99"/>
    <rect id="Rectangle_1655" data-name="Rectangle 1655" width="1.551" height="7.979" transform="translate(647.191 66.053)" fill="#8c8c99"/>
  </g>
</svg>
