<svg xmlns="http://www.w3.org/2000/svg" width="34.656" height="35.453" viewBox="0 0 34.656 35.453">
  <g id="Group_837" data-name="Group 837" transform="translate(-635.287 -572.169)">
    <path id="Path_8232" data-name="Path 8232" d="M659.191,572.815l1.474,2.516-.758.444-1.474-2.516-1.447.848.9,1.539-.758.444-.9-1.539-1.447.848,1.474,2.516-.758.444-1.474-2.516-1.447.848.9,1.539-.758.444-.9-1.539-1.447.848,1.474,2.516-.758.444-1.474-2.516-1.447.848.9,1.539-.758.444-.9-1.539-1.447.848,1.474,2.516-.758.444-1.474-2.516-1.447.848.9,1.539-.758.444L643,582.3l-1.447.848,1.474,2.516-.758.444-1.474-2.516-1.447.848.9,1.539-.758.444-.9-1.539-1.447.848,1.474,2.516-.758.444-1.474-2.516-1.1.646,2.948,5.031L663.241,577.2l-2.948-5.031Z" transform="translate(0)" fill="#8c8c99"/>
    <path id="Path_8233" data-name="Path 8233" d="M688.378,641.5l1.474,2.516-.758.444-1.474-2.516-1.447.848.9,1.539-.758.444-.9-1.539-1.447.848,1.474,2.516-.758.444-1.474-2.516-1.447.848.9,1.539-.758.444-.9-1.539-1.447.848,1.474,2.516-.758.444L678.8,647.11l-1.447.848.9,1.539-.758.444-.9-1.539-1.447.848,1.474,2.516-.758.444-1.474-2.516-1.447.848.9,1.539-.758.444-.9-1.539-1.447.848,1.474,2.516-.758.444-1.474-2.516-1.447.848.9,1.539-.758.444-.9-1.539-1.447.848,1.474,2.516-.758.444-1.474-2.516-1.1.646,2.948,5.031,25.007-14.651-2.948-5.031Z" transform="translate(-22.485 -52.914)" fill="#8c8c99"/>
    <path id="Path_8234" data-name="Path 8234" d="M653.305,643.171l7.4-3.985,19.5-.5-7.659,4.178Z" transform="translate(-13.881 -51.245)" fill="#8c8c99"/>
  </g>
</svg>
