<svg xmlns="http://www.w3.org/2000/svg" width="42.628" height="37.174" viewBox="0 0 42.628 37.174">
  <path id="caliper" d="M58.459,81.6a.71.71,0,0,0-1,0L55.928,83.13a2.131,2.131,0,0,1-2.285.477l-4.818-1.889a32.771,32.771,0,0,0,0-26.224L53.642,53.6a2.132,2.132,0,0,1,2.285.478l1.527,1.527A.711.711,0,0,0,58.46,54.6l-1.527-1.527a3.553,3.553,0,0,0-3.809-.795L21.488,64.689,33.337,51.809,36.458,54.7l1.248-1.348-.055-1.42-2.39-2.211.483-.524a.711.711,0,0,0-1.046-.962L18.549,65.784a2.842,2.842,0,0,0,.187,5.661L53.124,84.931a3.553,3.553,0,0,0,3.809-.8l1.527-1.527A.711.711,0,0,0,58.459,81.6ZM18.879,70.028A1.421,1.421,0,1,1,20.3,68.607,1.421,1.421,0,0,1,18.879,70.028Zm29.667,5.941-4.167-.931q-.17.678-.378,1.346l1.353.459a.71.71,0,1,1-.457,1.346l-1.354-.46q-.31.835-.679,1.654L20.777,70.719a2.837,2.837,0,0,0,0-4.226l22.087-8.662q.369.818.679,1.654l1.354-.46a.71.71,0,1,1,.457,1.346L44,60.831q.207.668.378,1.346l4.167-.931a.711.711,0,0,1,.31,1.387l-4.168.932q.137.706.235,1.422l1.419-.158A.71.71,0,1,1,46.5,66.24l-1.421.158q.061.745.081,1.5h4.272a.711.711,0,1,1,0,1.421H45.158q-.02.753-.081,1.5l1.421.158a.711.711,0,0,1-.078,1.417.734.734,0,0,1-.08,0l-1.419-.158q-.1.716-.235,1.422l4.168.932a.711.711,0,0,1-.31,1.387Z" transform="translate(-16.04 -48.002)" fill="#8c8c99"/>
</svg>
