<svg xmlns="http://www.w3.org/2000/svg" width="32.249" height="34.553" viewBox="0 0 32.249 34.553">
  <g id="Group_849" data-name="Group 849" transform="translate(-1531.59 -386.306)">
    <g id="Group_842" data-name="Group 842" transform="translate(1531.59 386.306)">
      <g id="Group_841" data-name="Group 841">
        <path id="Path_8242" data-name="Path 8242" d="M1560.962,423.859h-26.5a2.88,2.88,0,0,1-2.877-2.878v-28.8a2.88,2.88,0,0,1,2.877-2.877h26.5a2.88,2.88,0,0,1,2.877,2.877v28.8A2.88,2.88,0,0,1,1560.962,423.859Zm-26.5-32.945a1.27,1.27,0,0,0-1.269,1.269v28.8a1.27,1.27,0,0,0,1.269,1.269h26.5a1.27,1.27,0,0,0,1.269-1.269v-28.8a1.27,1.27,0,0,0-1.269-1.269Z" transform="translate(-1531.59 -389.306)" fill="#8c8c99"/>
      </g>
    </g>
    <g id="Group_846" data-name="Group 846" transform="translate(1535.967 393.684)">
      <g id="Group_845" data-name="Group 845">
        <path id="Path_8244" data-name="Path 8244" d="M1594.027,449.27h-21.083a1.208,1.208,0,0,1-1.206-1.206v-17.4a1.207,1.207,0,0,1,1.206-1.206h21.083a1.208,1.208,0,0,1,1.206,1.206v17.4A1.208,1.208,0,0,1,1594.027,449.27Zm-20.681-1.608h20.279V431.07h-20.279Z" transform="translate(-1571.738 -429.462)" fill="#8c8c99"/>
      </g>
    </g>
    <g id="Group_848" data-name="Group 848" transform="translate(1536.359 416.088)">
      <g id="Group_847" data-name="Group 847" transform="translate(0 0)">
        <path id="Path_8245" data-name="Path 8245" d="M1583.982,636.587h-7.844a.8.8,0,0,1,0-1.608h7.844a.8.8,0,0,1,0,1.608Z" transform="translate(-1575.334 -634.979)" fill="#8c8c99"/>
      </g>
    </g>
  </g>
</svg>
