<svg xmlns="http://www.w3.org/2000/svg" width="19.977" height="20.407" viewBox="0 0 19.977 20.407">
  <g id="success" transform="translate(-0.297 0)">
    <path id="Path_9593" data-name="Path 9593" d="M.3,19.051l.265.6,9.493-3.936,1.654.2.6,1.819-.794.761a.953.953,0,0,0-.231,1.091l.331.827,5.49-2.15-.3-.794a.935.935,0,0,0-.926-.628H14.784l-.6-1.422,1.455-.728a.994.994,0,0,0,.5-1.224L14.255,8.4a1.019,1.019,0,0,0-1.29-.6.032.032,0,0,0-.033.033l-1.389.6-.2-.5.761-.893a3.892,3.892,0,0,0,.959-2.117l.959-1.158a1.737,1.737,0,0,0-.232-2.448,2.768,2.768,0,0,0-.4-.265,1.643,1.643,0,0,0-1.125-.1l-.1-.3a.956.956,0,0,0-1.257-.6L3.935,2.58a.968.968,0,0,0-.6,1.257V3.87l.165.43a1.833,1.833,0,0,0-.959,2.249A1.881,1.881,0,0,0,4.067,7.773l1.555.165a4.307,4.307,0,0,0,2.15.827l1.091.1.2.5a.985.985,0,0,0-.463.661l-.232,1.125L.3,14.421l.232.628L5.159,13.2l1.125,3.374ZM16.14,17.662l.066.2-4.234,1.687-.1-.2a.459.459,0,0,1,.066-.364l1.125-1.058,1.422-.463h1.323a.332.332,0,0,1,.331.2Zm-2.084-.794-1.191.4-.43-1.257a.735.735,0,0,0,.529-.1l.562-.265Zm-.893-8.533a.328.328,0,0,1,.43.165l.265.695-1.621.529.2.628,1.621-.529.4,1.058-1.554.529.2.629,1.588-.529.4,1.058-1.521.5.2.629,1.554-.529.165.43a.292.292,0,0,1-.165.4L12.7,15.281a.419.419,0,0,1-.2.033l-2.249-.265L9.029,11.378l.232-1.224a.35.35,0,0,1,.2-.232ZM13.13,1.654a1.1,1.1,0,0,1,.562,1.422,1.159,1.159,0,0,1-.165.265l-.4.5a4.943,4.943,0,0,0-.2-.959l-.43-1.29a1.322,1.322,0,0,1,.628.066ZM3.207,6.384A1.139,1.139,0,0,1,3.77,4.961l.463,1.125A4.792,4.792,0,0,0,4.894,7.21L4.2,7.144a1.106,1.106,0,0,1-.992-.761ZM7.9,8.137A3.615,3.615,0,0,1,4.861,5.854L4,3.671a.328.328,0,0,1,.165-.43L11.145.728a.365.365,0,0,1,.265,0,.339.339,0,0,1,.165.2L12.3,3.109a3.636,3.636,0,0,1-.694,3.506L10.583,7.806l.3.794L9.69,9.1l-.331-.827Zm-2.117,4.8.761-.3.827,2.514L8,14.95l-.86-2.58,1.323-.529,1.125,3.341L6.912,16.306Zm0,0" transform="translate(0 0)" fill="#8c8c99"/>
    <path id="Path_9594" data-name="Path 9594" d="M357.15,40.292v.331h.662v-.331a1.638,1.638,0,0,1,1.654-1.654v-.661a1.638,1.638,0,0,1-1.654-1.654v-.331h-.662v.331a1.638,1.638,0,0,1-1.654,1.654v.661A1.638,1.638,0,0,1,357.15,40.292Zm.331-2.778a2.279,2.279,0,0,0,.794.794,2.281,2.281,0,0,0-.794.794,2.281,2.281,0,0,0-.794-.794A2.279,2.279,0,0,0,357.48,37.513Zm0,0" transform="translate(-340.514 -34.504)" fill="#8c8c99"/>
    <path id="Path_9595" data-name="Path 9595" d="M5.15,200.292v.331h.661v-.331a1.638,1.638,0,0,1,1.654-1.654v-.662a1.638,1.638,0,0,1-1.654-1.654v-.331H5.15v.331A1.638,1.638,0,0,1,3.5,197.976v.662A1.638,1.638,0,0,1,5.15,200.292Zm.331-2.778a2.279,2.279,0,0,0,.794.794,2.281,2.281,0,0,0-.794.794,2.281,2.281,0,0,0-.794-.794A2.279,2.279,0,0,0,5.481,197.513Zm0,0" transform="translate(-3.067 -187.889)" fill="#8c8c99"/>
    <path id="Path_9596" data-name="Path 9596" d="M389.811,196.323v-.331h-.661v.331a1.638,1.638,0,0,1-1.654,1.654v.662a1.638,1.638,0,0,1,1.654,1.654v.331h.661v-.331a1.638,1.638,0,0,1,1.654-1.654v-.662A1.638,1.638,0,0,1,389.811,196.323Zm-.331,2.778a2.281,2.281,0,0,0-.794-.794,2.279,2.279,0,0,0,.794-.794,2.279,2.279,0,0,0,.794.794A2.281,2.281,0,0,0,389.48,199.1Zm0,0" transform="translate(-371.191 -187.889)" fill="#8c8c99"/>
    <path id="Path_9597" data-name="Path 9597" d="M236.363,44.226l.463.463c1.819-1.819.132-4.6.033-4.7l-.562.364c.033,0,1.521,2.415.066,3.87Zm0,0" transform="translate(-226.242 -38.338)" fill="#8c8c99"/>
  </g>
</svg>
