<svg enable-background="new 0 0 612 612" viewBox="0 0 612 612" xmlns="http://www.w3.org/2000/svg"><g fill="#b6b6b6"><path d="m41.2 500.5h23.7c9.1 0 16.4-7.3 16.4-16.4s-7.3-16.4-16.4-16.4h-23.7v-73.2h23.7c9.1 0 16.4-7.3 16.4-16.4s-7.3-16.4-16.4-16.4h-23.7v-73.2h23.7c9.1 0 16.4-7.3 16.4-16.4s-7.3-16.4-16.4-16.4h-23.7v-73.2h23.7c9.1 0 16.4-7.3 16.4-16.4s-7.3-16.4-16.4-16.4h-23.7v-73.2h23.7c9.1 0 16.4-7.3 16.4-16.4s-7.3-16.4-16.4-16.4h-23.7v-43.7h-41.2v570.8 41.2h41.2 570.8v-41.2h-570.8z"/><path d="m543.6 132c32.5 0 58.8-26.3 58.8-58.8s-26.3-58.8-58.8-58.8-58.8 26.3-58.8 58.8c0 22.3 12.4 41.6 30.6 51.6l-34 130.7c-1.6-.1-3.1-.2-4.7-.2-32.5 0-58.8 26.3-58.8 58.8 0 8.8 2 17.1 5.4 24.6l-84.3 57.6c-10.6-10.3-25.1-16.7-41.1-16.7-8.8 0-17 2-24.5 5.4l-68.5-100.3c11.1-10.7 18-25.7 18-42.3 0-32.5-26.3-58.8-58.8-58.8s-58.8 26.4-58.8 58.8 26.3 58.8 58.8 58.8c7.3 0 14.2-1.4 20.6-3.8l69.5 101.7c-9.4 10.4-15.1 24.1-15.1 39.2 0 32.5 26.3 58.8 58.8 58.8s58.8-26.3 58.8-58.8c0-7.9-1.6-15.4-4.4-22.3l85.1-58.2c10.4 9.3 24.1 15.1 39.2 15.1 32.5 0 58.8-26.3 58.8-58.8 0-22.5-12.6-42-31.1-51.9l33.9-130.4c1.8.1 3.6.2 5.4.2zm-355.3 128.3c-4.8 6.5-12.2 11.1-20.7 12-1.1.1-2.3.2-3.5.2-16.6 0-30.2-13.5-30.2-30.2s13.5-30.2 30.2-30.2 30.2 13.5 30.2 30.2c-.1 6.8-2.3 13-6 18zm109.6 208.3c-16.6 0-30.2-13.5-30.2-30.2 0-5.1 1.3-9.9 3.5-14.2 3.9-7.3 10.6-12.7 18.8-14.9 2.5-.7 5.1-1.1 7.9-1.1 6.1 0 11.7 1.8 16.4 4.9 6.8 4.5 11.7 11.6 13.2 19.9.3 1.7.5 3.5.5 5.3.1 16.7-13.5 30.3-30.1 30.3zm208.9-154.5c0 16.6-13.5 30.2-30.2 30.2-5.1 0-9.9-1.3-14.1-3.5-7.3-3.9-12.7-10.6-15-18.7-.7-2.5-1.1-5.2-1.1-7.9 0-15.7 12.1-28.7 27.5-30 .9-.1 1.8-.1 2.7-.1 7.7 0 14.7 2.9 20 7.7 6.3 5.3 10.2 13.4 10.2 22.3zm6.6-240.9c0-16.6 13.5-30.2 30.2-30.2s30.2 13.5 30.2 30.2c0 15.9-12.4 29-28.1 30.1-.7 0-1.4.1-2.1.1-7.9 0-15.1-3.1-20.5-8.1-5.9-5.6-9.7-13.4-9.7-22.1z"/></g></svg>