<svg enable-background="new 0 0 512 512" viewBox="0 0 512 512" xmlns="http://www.w3.org/2000/svg"><g fill="#b6b6b6"><path d="m117.3 149.3h234.7c5.9 0 10.7-4.8 10.7-10.7s-4.8-10.7-10.7-10.7h-234.7c-5.9 0-10.7 4.8-10.7 10.7.1 6 4.8 10.7 10.7 10.7z"/><path d="m245.3 256h-128c-5.9 0-10.7 4.8-10.7 10.7s4.8 10.7 10.7 10.7h128c5.9 0 10.7-4.8 10.7-10.7s-4.8-10.7-10.7-10.7z"/><path d="m471.2 64c-.6 0-1.2.2-1.8.2v-.2c0-23.5-19.1-42.7-42.7-42.7h-384c-23.6 0-42.7 19.2-42.7 42.7v416c0 4.3 2.6 8.2 6.6 9.9 1.3.6 2.7.8 4.1.8 2.8 0 5.5-1.1 7.5-3.1l103.6-103.6h304.9c23.5 0 42.7-19.1 42.7-42.7v-176.9l30.7-30.7c7.6-7.6 12-18.1 12-28.9-.1-22.5-18.4-40.8-40.9-40.8zm-23.2 277.3c0 11.8-9.6 21.3-21.3 21.3h-309.4c-2.8 0-5.5 1.1-7.5 3.1l-88.5 88.5v-390.2c0-11.8 9.6-21.3 21.3-21.3h384c11.8 0 21.3 9.6 21.3 21.3v7.3c-2 1.4-4 2.9-5.7 4.7l-116 116h-208.9c-5.9 0-10.7 4.8-10.7 10.7s4.8 10.7 10.7 10.7h191.8l-10.2 51.2c-.7 3.5.4 7.1 2.9 9.6 2 2 4.8 3.1 7.5 3.1.7 0 1.4-.1 2.1-.2l53.3-10.7c2.1-.4 4-1.4 5.5-2.9l77.8-77.8zm-90.6-95.1-34.5 6.9 6.9-34.5 96.8-96.8 27.6 27.6zm127.6-127.6-15.6 15.6-27.6-27.6 15.6-15.6c3.6-3.6 8.6-5.7 13.8-5.7 10.8 0 19.5 8.8 19.5 19.5 0 5.2-2.1 10.2-5.7 13.8z"/></g></svg>