<svg enable-background="new 0 0 480 480" viewBox="0 0 480 480" xmlns="http://www.w3.org/2000/svg"><g fill="#b6b6b6"><path d="m440 0h-400c-22.1 0-40 17.9-40 40v400c0 22.1 17.9 40 40 40h400c22.1 0 40-17.9 40-40v-400c0-22.1-17.9-40-40-40zm24 440c0 13.3-10.7 24-24 24h-400c-13.3 0-24-10.7-24-24v-400c0-13.3 10.7-24 24-24h400c13.3 0 24 10.7 24 24z"/><path d="m400 384c-17.7 0-32 14.3-32 32s14.3 32 32 32 32-14.3 32-32-14.3-32-32-32zm0 48c-8.8 0-16-7.2-16-16s7.2-16 16-16 16 7.2 16 16-7.2 16-16 16z"/><path d="m347.7 172.3c1.5 1.5 3.6 2.3 5.7 2.3s4.2-.8 5.7-2.3l40-40c11.9-12 11.9-31.4 0-43.4-12.2-11.5-31.2-11.5-43.4 0l-2.3 2.3-2.4-2.2c-12.2-11.5-31.2-11.5-43.4 0-11.9 12-11.9 31.4 0 43.4zm-28.7-72c5.6-5.7 14.8-5.8 20.5-.2.1.1.1.1.2.2l8 8c3.1 3.1 8.2 3.2 11.3 0l8-8c5.7-5.6 14.9-5.6 20.6 0s5.8 14.8.2 20.5c-.1.1-.1.1-.2.2l-34.3 34.3-34.3-34.3c-5.6-5.8-5.6-15 0-20.7z"/><path d="m432 40h-384c-4.4 0-8 3.6-8 8v312c0 4.4 3.6 8 8 8h384c4.4 0 8-3.6 8-8v-312c0-4.4-3.6-8-8-8zm-8 312h-368v-296h368z"/><path d="m167.1 203.6 9.4-18.6 24.6 43c1.6 2.8 4.8 4.4 8 4 3.1-.3 5.8-2.4 6.8-5.4l24-71.2 32.1 118.8c1 3.6 4.3 6 8 5.8 3.6.2 6.9-2 8-5.4l21.8-66.6h98.2v-16h-104c-3.6-.2-6.9 2-8 5.4l-16 47.2-32-118.8c-1-3.6-4.3-6-8-5.8-3.6-.2-6.9 2-8 5.4l-26.3 79-22.7-40.4c-1.4-2.5-4.1-4-7-4-2.9.1-5.6 1.8-6.9 4.4l-14.1 27.6h-83v16h88c3 0 5.8-1.7 7.1-4.4z"/><path d="m104 392h-48c-4.4 0-8 3.6-8 8v32c0 4.4 3.6 8 8 8h48c4.4 0 8-3.6 8-8v-32c0-4.4-3.6-8-8-8zm-8 32h-32v-16h32z"/><path d="m72 120h64v16h-64z"/><path d="m72 152h48v16h-48z"/><path d="m72 304h16v32h-16z"/><path d="m232 304h16v32h-16z"/><path d="m392 304h16v32h-16z"/><path d="m112 320h16v16h-16z"/><path d="m152 304h16v32h-16z"/><path d="m312 304h16v32h-16z"/><path d="m192 320h16v16h-16z"/><path d="m272 320h16v16h-16z"/><path d="m352 320h16v16h-16z"/><path d="m184 392h-48c-4.4 0-8 3.6-8 8v32c0 4.4 3.6 8 8 8h48c4.4 0 8-3.6 8-8v-32c0-4.4-3.6-8-8-8zm-8 32h-32v-16h32z"/><path d="m264 392h-48c-4.4 0-8 3.6-8 8v32c0 4.4 3.6 8 8 8h48c4.4 0 8-3.6 8-8v-32c0-4.4-3.6-8-8-8zm-8 32h-32v-16h32z"/><path d="m344 392h-48c-4.4 0-8 3.6-8 8v32c0 4.4 3.6 8 8 8h48c4.4 0 8-3.6 8-8v-32c0-4.4-3.6-8-8-8zm-8 32h-32v-16h32z"/></g></svg>