<svg enable-background="new 0 0 512 512" viewBox="0 0 512 512" xmlns="http://www.w3.org/2000/svg"><path d="m483.9 200.4-40.1-5.1c-3.3-10.2-7.4-20-12.1-29.3l24.8-31.9c10-12.9 8.9-31.1-2.6-42.2l-33.6-33.6c-11.2-11.6-29.4-12.7-42.3-2.7l-32 24.7c-9.3-4.8-19.1-8.8-29.3-12.1l-5.1-40c-1.9-16.1-15.6-28.2-31.7-28.2h-47.8c-16.1 0-29.8 12.1-31.7 28.1l-5.1 40.1c-10.2 3.3-20 7.4-29.3 12.1l-31.9-24.8c-12.9-10-31.1-8.9-42.2 2.6l-33.6 33.7c-11.6 11.2-12.7 29.4-2.7 42.4l24.7 31.8c-4.8 9.3-8.8 19.1-12.1 29.3l-40 5.1c-16.1 1.9-28.2 15.6-28.2 31.7v47.8c0 16.1 12.1 29.8 28.1 31.7l40.1 5.1c3.3 10.2 7.4 20 12.1 29.3l-24.8 31.9c-10 12.9-8.9 31.1 2.6 42.2l33.6 33.6c11.2 11.5 29.4 12.7 42.3 2.7l31.9-24.8c9.3 4.8 19.1 8.9 29.3 12.1l5.1 40c1.9 16.1 15.6 28.2 31.7 28.2h47.8c16.1 0 29.8-12.1 31.7-28.1l5.1-40.1c10.2-3.3 20-7.4 29.3-12.1l31.9 24.8c12.9 10 31.1 8.9 42.2-2.6l33.6-33.6c11.6-11.2 12.7-29.4 2.7-42.3l-24.6-31.9c4.8-9.3 8.9-19.1 12.1-29.3l40-5.1c16.1-1.9 28.2-15.6 28.2-31.7v-47.8c0-16.1-12.1-29.8-28.1-31.7zm-227.9 162.3c-58.8 0-106.7-47.9-106.7-106.7s47.9-106.7 106.7-106.7 106.7 47.9 106.7 106.7-47.9 106.7-106.7 106.7z" fill="#b6b6b6"/></svg>