<svg enable-background="new 0 0 512 512" viewBox="0 0 512 512" xmlns="http://www.w3.org/2000/svg"><g fill="#b6b6b6"><path d="m236.8 225.3c5.4 4.4 12.3 6.7 19.2 6.7 7 0 13.8-2.4 19.2-6.8l25.6-20.5c7.1-5.7 11.1-14.1 11.1-23.1 0-16.3-13.3-29.6-29.6-29.6h-1.3c-7.9 0-15.3 3.1-20.9 8.7l-4 4-4-4c-5.6-5.6-13-8.7-20.9-8.7h-1.4c-16.3 0-29.6 13.3-29.6 29.6 0 9 4 17.5 11.1 23.1zm-7.2-57.3h1.4c3.6 0 7.1 1.4 9.6 4l15.3 15.3 15.3-15.3c2.6-2.6 6-4 9.6-4h1.4c7.5 0 13.6 6.1 13.6 13.6 0 4.2-1.9 8-5.1 10.6l-25.6 20.5c-5.2 4.2-13.3 4.2-18.5 0l-25.6-20.5c-3.3-2.6-5.1-6.5-5.1-10.6.1-7.5 6.2-13.6 13.7-13.6z"/><path d="m336 120h-160c-22.1 0-40 17.9-40 40v192c0 22.1 17.9 40 40 40h160c22.1 0 40-17.9 40-40v-192c0-22.1-17.9-40-40-40zm-160 16h160c13.2 0 24 10.8 24 24v88h-208v-88c0-13.2 10.8-24 24-24zm160 240h-160c-13.2 0-24-10.8-24-24v-88h208v88c0 13.2-10.8 24-24 24z"/><path d="m448 216c-2.8 0-5.5.6-8 1.5v-17.9c0-45.8-24.8-87.1-64.9-108.8l-16.5-82.8h-205.2l-16.6 82.8c-25.7 13.9-45 35.8-55.7 61.8-23.4 3.3-41.1 23.1-41.1 47.4 0 20.5 13.2 38.4 32 45.1v21.7c-18.9 6.7-32 24.7-32 45.1 0 24.3 17.7 44.1 41.2 47.4 10.6 26 30 47.9 55.7 61.8l16.6 82.8h205.1l16.6-82.8c40.1-21.7 64.9-63 64.9-108.8v-17.9c2.5.9 5.2 1.5 8 1.5 13.2 0 24-10.8 24-24v-32c-.1-13.1-10.9-23.9-24.1-23.9zm-102.6-192 12.8 64h-16.3l-9.6-48h-152.6l-9.6 48h-16.3l12.8-64zm-19.8 64h-139.2l6.4-32h126.4zm-269.6 112c0-13.3 7.9-24.5 19.4-29.3-2.2 9.3-3.4 19-3.4 28.9v28.1c-9.6-5.7-16-16.1-16-27.7zm0 112c0-11.6 6.4-22 16-27.6v28.1c0 9.9 1.2 19.6 3.4 28.9-11.5-4.9-19.4-16.1-19.4-29.4zm110.6 176-12.8-64h16.3l9.6 48h152.6l9.6-48h16.3l-12.8 64zm19.8-64h139.2l-6.4 32h-126.4zm237.6-111.6c0 40.5-22.1 76.9-57.9 95.6h-220.2c-35.8-18.6-57.9-55.1-57.9-95.6v-112.8c0-40.5 22.1-76.9 57.9-95.6h220.2c35.8 18.6 57.9 55.1 57.9 95.6v40.4 32zm32-40.4c0 4.4-3.6 8-8 8s-8-3.6-8-8v-32c0-4.4 3.6-8 8-8s8 3.6 8 8z"/><circle cx="400" cy="208" r="8"/><circle cx="400" cy="240" r="8"/><circle cx="400" cy="272" r="8"/><circle cx="400" cy="304" r="8"/><circle cx="112" cy="208" r="8"/><circle cx="112" cy="240" r="8"/><circle cx="112" cy="272" r="8"/><circle cx="112" cy="304" r="8"/><path d="m265.2 334.5-24.6-57.5-21.5 43h-51.1v16h60.9l10.5-21 23.4 54.5 29.7-49.5h51.5v-16h-60.5z"/></g></svg>