<svg enable-background="new 0 0 512 512" viewBox="0 0 512 512" xmlns="http://www.w3.org/2000/svg"><g fill="#b6b6b6"><path d="m299.9 262.8c10-10.7 16.1-25.1 16.1-40.8 0-33.1-26.9-60-60-60s-60 26.9-60 60c0 15.7 6.1 30.1 16.1 40.8-30.4 15.9-51.1 47.7-51.1 84.2v10c0 8.3 6.7 15 15 15h160c8.3 0 15-6.7 15-15v-10c0-36.5-20.7-68.3-51.1-84.2zm-73.9-40.8c0-16.5 13.5-30 30-30s30 13.5 30 30-13.5 30-30 30-30-13.5-30-30zm-34.8 120c2.6-33.5 30.6-60 64.8-60s62.2 26.5 64.8 60z"/><path d="m511 135v-100c0-19.3-15.7-35-35-35h-140c-19.3 0-35 15.7-35 35v67h-225c-30.3 0-55 24.7-55 55v245h-5c-8.3 0-15 6.7-15 15v40c0 30.3 24.7 55 55 55h400c30.3 0 55-24.7 55-55v-40c0-8.3-6.7-15-15-15h-5v-235.4c11.8-5.6 20-17.7 20-31.6zm-180-100c0-2.8 2.2-5 5-5h140c2.8 0 5 2.2 5 5v100c0 2.8-2.2 5-5 5h-60c-3 0-5.9.9-8.3 2.5l-36.7 24.5v-12c0-8.3-6.7-15-15-15h-20c-2.8 0-5-2.2-5-5zm150 422c0 13.8-11.2 25-25 25h-400c-13.8 0-25-11.2-25-25v-25h140.4c2.4 16.9 17 30 34.6 30h100c17.6 0 32.2-13.1 34.6-30h140.4zm-155-55c-8.3 0-15 6.7-15 15v10c0 2.8-2.2 5-5 5h-100c-2.8 0-5-2.2-5-5v-10c0-8.3-6.7-15-15-15h-135v-245c0-13.8 11.2-25 25-25h225v3c0 19.3 15.7 35 35 35h5v25c0 5.5 3 10.6 7.9 13.2 2.2 1.2 4.6 1.8 7.1 1.8 2.9 0 5.8-.8 8.3-2.5l56.2-37.5h40.5v232z"/><path d="m376 100h60c8.3 0 15-6.7 15-15s-6.7-15-15-15h-60c-8.3 0-15 6.7-15 15s6.7 15 15 15z"/></g></svg>