<svg enable-background="new 0 0 480 480" viewBox="0 0 480 480" xmlns="http://www.w3.org/2000/svg"><g fill="#b6b6b6"><path d="m392 48h-8v-8c0-22.1-17.9-40-40-40h-256c-22.1 0-40 17.9-40 40v352c0 22.1 17.9 40 40 40h8v8c0 22.1 17.9 40 40 40h256c22.1 0 40-17.9 40-40v-352c0-22.1-17.9-40-40-40zm-72-32v36.7l-10.3-10.3c-3.1-3.1-8.2-3.1-11.3 0l-10.4 10.3v-36.7zm-256 376v-352c0-13.3 10.7-24 24-24h184v56c0 3.2 1.9 6.2 4.9 7.4s6.4.6 8.7-1.7l18.4-18.4 18.3 18.3c2.3 2.3 5.7 3 8.7 1.7s4.9-4.2 4.9-7.4v-55.9h8c13.3 0 24 10.7 24 24v352c0 13.3-10.7 24-24 24h-255.9c-13.3 0-24-10.7-24-24zm352 48c0 13.3-10.7 24-24 24h-256c-13.3 0-24-10.7-24-24v-8h232c22.1 0 40-17.9 40-40v-328h8c13.3 0 24 10.7 24 24z"/><path d="m175.4 77.2c-1.2-3.1-4.1-5.2-7.4-5.2h-64c-4.4 0-8 3.6-8 8v64c0 4.4 3.6 8 8 8h64c4.4 0 8-3.6 8-8v-44.7l21.7-21.7-11.3-11.3zm-15.4 58.8h-48v-48h48v4.7l-16 16-10.3-10.3-11.3 11.3 16 16c3.1 3.1 8.2 3.1 11.3 0l10.3-10.3z"/><path d="m186.3 178.3-10.9 10.9c-1.2-3.1-4.1-5.2-7.4-5.2h-64c-4.4 0-8 3.6-8 8v64c0 4.4 3.6 8 8 8h64c4.4 0 8-3.6 8-8v-44.7l21.7-21.7zm-26.3 69.7h-48v-48h48v4.7l-16 16-10.3-10.3-11.3 11.3 16 16c3.1 3.1 8.2 3.1 11.3 0l10.3-10.3z"/><path d="m168 288h-64c-4.4 0-8 3.6-8 8v64c0 4.4 3.6 8 8 8h64c4.4 0 8-3.6 8-8v-64c0-4.4-3.6-8-8-8zm-8 64h-48v-48h48z"/><path d="m208 120h80v16h-80z"/><path d="m208 88h48v16h-48z"/><path d="m208 232h80v16h-80z"/><path d="m208 200h48v16h-48z"/><path d="m208 336h80v16h-80z"/><path d="m208 304h48v16h-48z"/><path d="m272 304h16v16h-16z"/></g></svg>