<svg enable-background="new 0 0 512 512" viewBox="0 0 512 512" xmlns="http://www.w3.org/2000/svg"><g fill="#b6b6b6"><path d="m216 107.2v-1.3c0-13.7-5.3-26.6-15-36.3-8.8-8.8-20.5-13.7-33-13.7-12 0-23.3 4.5-32 12.7-8.7-8.2-20-12.7-32-12.7-12.5 0-24.2 4.8-33 13.7-9.7 9.7-15 22.6-15 36.3v1.3c0 15.5 6.6 30.3 18.2 40.6l61.8 54.9 61.8-54.9c11.6-10.3 18.2-25.1 18.2-40.6zm-80 74.1-51.1-45.5c-8.2-7.3-12.9-17.7-12.9-28.6v-1.3c0-9.4 3.7-18.3 10.3-25 5.8-5.8 13.5-9 21.7-9s15.9 3.2 21.7 9l10.3 10.4 10.3-10.3c11.6-11.6 31.7-11.6 43.3 0 6.7 6.7 10.3 15.5 10.3 25v1.3c0 10.9-4.7 21.4-12.9 28.6z"/><path d="m480 72h-216v-40c0-13.2-10.8-24-24-24h-208c-13.2 0-24 10.8-24 24v176c0 13.2 10.8 24 24 24h68.3l13.3 16h-65.6c-13.2 0-24 10.8-24 24v160c0 13.2 10.8 24 24 24h84.3l34.3 41.2c3.6 4.3 8.9 6.8 14.5 6.8 10.4 0 18.9-8.5 18.9-18.9v-29.1h88c13.2 0 24-10.8 24-24v-136h16v29.1c0 10.4 8.5 18.9 18.9 18.9 5.6 0 10.9-2.5 14.5-6.8l34.3-41.2h84.3c13.2 0 24-10.8 24-24v-176c0-13.2-10.8-24-24-24zm-448 144c-4.4 0-8-3.6-8-8v-176c0-4.4 3.6-8 8-8h208c4.4 0 8 3.6 8 8v176c0 4.4-3.6 8-8 8h-88v45.1c0 2.5-3.5 3.8-5.1 1.8l-39.1-47h-75.8zm184 32h-48v-16h48zm80 184c0 4.4-3.6 8-8 8h-104v45.1c0 2.5-3.5 3.8-5.1 1.8l-39.1-47h-91.8c-4.4 0-8-3.6-8-8v-159.9c0-4.4 3.6-8 8-8h78.9l7.7 9.2c3.6 4.3 8.9 6.8 14.5 6.8 9.4 0 17.2-7 18.6-16h48.3v8c0 13.2 10.8 24 24 24h56zm192-160c0 4.4-3.6 8-8 8h-91.7l-39.1 47c-1.6 1.9-5.1.6-5.1-1.8v-45.2h-104.1c-4.4 0-8-3.6-8-8v-40h8c13.2 0 24-10.8 24-24v-120h216c4.4 0 8 3.6 8 8z"/><path d="m200 344c0 4.7 1.1 9.2 3 13.3-3.4-3.1-7.3-5.7-11.4-7.7 5.2-5.7 8.5-13.2 8.5-21.5 0-17.6-14.4-32-32-32s-32 14.4-32 32c0 8.3 3.3 15.8 8.5 21.5-4.2 2.1-8 4.7-11.4 7.7 1.9-4 3-8.5 3-13.3 0-17.6-14.4-32-32-32s-32 14.4-32 32c0 8.5 3.4 16.2 8.9 22-15 8.2-25.1 23.9-25.1 42v16h16v-16c0-17.6 14.4-32 32-32 5 0 9.9 1.2 14.3 3.4-1.3 3.7-2.2 7.5-2.6 11.5l-3.6 32.2 15.9 1.8 3.6-32.2c2-18.7 17.7-32.7 36.4-32.7s34.4 14 36.5 32.6l3.6 32.2 15.9-1.8-3.6-32.2c-.4-4-1.4-7.8-2.6-11.5 4.4-2.2 9.2-3.4 14.3-3.4 17.6 0 32 14.4 32 32v16h16v-16c0-18.1-10.1-33.8-24.9-42 5.5-5.7 8.9-13.4 8.9-22 0-17.6-14.4-32-32-32s-32.1 14.5-32.1 32.1zm-112 0c0-8.8 7.2-16 16-16s16 7.2 16 16-7.2 16-16 16-16-7.2-16-16zm64-16c0-8.8 7.2-16 16-16s16 7.2 16 16-7.2 16-16 16-16-7.2-16-16zm96 16c0 8.8-7.2 16-16 16s-16-7.2-16-16 7.2-16 16-16 16 7.2 16 16z"/><path d="m424 152h-14.6l1.9-11.6c1.5-9.1-1-18.3-7-25.4-6-7-14.7-11.1-23.9-11.1-11 0-20.6 7.5-23.3 18.2-2.9 11.6-8.9 22.2-17.4 30.7l-2.4 2.4c-2.7-2-5.9-3.2-9.5-3.2h-32c-8.8 0-16 7.2-16 16v80c0 8.8 7.2 16 16 16h32c7 0 12.9-4.5 15-10.8 14.2 7 29.8 10.8 45.8 10.8h35.4c17.6 0 32-14.4 32-32v-48c0-17.6-14.4-32-32-32zm-128 96v-80h32v80zm144-16c0 8.8-7.2 16-16 16h-35.2c-15.9 0-31.3-4.3-44.8-12.5v-64.2l7.2-7.2c10.5-10.5 18-23.7 21.6-38.1.9-3.6 4.1-6.1 7.8-6.1 4.5 0 8.8 2 11.7 5.4s4.2 8 3.4 12.4l-5 30.2h33.3c8.8 0 16 7.2 16 16z"/></g></svg>