<svg enable-background="new 0 0 512 512" viewBox="0 0 512 512" xmlns="http://www.w3.org/2000/svg"><g fill="#b6b6b6"><path d="m460.8 101.8v-33.5c0-18.9-15.3-34.1-34.1-34.1h-57.1c-9.9-20.9-30.9-34.2-53.9-34.2s-44 13.3-53.8 34.1h-54.4c-9.9-20.8-30.9-34.1-53.9-34.1s-44 13.3-53.8 34.1h-65.7c-18.8 0-34.1 15.3-34.1 34.2v409.6c0 18.8 15.3 34.1 34.1 34.1h392.5c15.5-.1 29-10.6 32.9-25.6h25.9c7.7 0 15-3.3 20-9.1s7.3-13.5 6.2-21.1zm-145.1-84.7c13.4 0 26.1 6.3 34.1 17.1h-68c8-10.8 20.6-17.1 33.9-17.1zm0 102.4c4.7 0 8.5-3.8 8.5-8.5s-3.8-8.5-8.5-8.5c-13.4 0-25.9-6.4-33.9-17.1h119.2c4.7 0 8.5 3.8 8.5 8.5v42.7h-358.3v-42.7c0-4.7 3.8-8.5 8.5-8.5h40c9.9 20.8 30.8 34.1 53.9 34.1 4.7 0 8.5-3.8 8.5-8.5s-3.8-8.5-8.5-8.5c-13.4 0-25.9-6.4-33.9-17.1h142.2c9.8 20.8 30.8 34 53.8 34.1zm93.9 281.6h-34.1c-14.1 0-25.6 11.5-25.6 25.6v34.1h-290.2c-4.7 0-8.5-3.8-8.5-8.5v-298.7h358.4zm-12.1 17-30.6 30.6v-22.1c0-4.7 3.8-8.5 8.5-8.5zm-285.7-349.8c-1.1-5.6-1.1-11.4 0-17.1h144.9c-.4 2.8-.7 5.7-.7 8.5 0 2.9.3 5.7.7 8.5h-144.9zm41.8-51.2c13.4 0 26.1 6.3 34.1 17.1h-68c8-10.8 20.5-17.1 33.9-17.1zm290.1 460.8c0 9.4-7.6 17.1-17.1 17.1h-392.5c-9.4 0-17.1-7.6-17.1-17.1v-409.6c0-9.4 7.6-17.1 17.1-17.1h60.4c-.4 2.8-.7 5.7-.7 8.5 0 2.9.3 5.7.7 8.5h-34.8c-14.1 0-25.6 11.5-25.6 25.6v358.4c0 14.1 11.5 25.6 25.6 25.6h291.6c6.8 0 13.3-2.7 18.1-7.5l49.7-49.7c4.8-4.8 7.5-11.3 7.5-18.1v-308.6c0-14.1-11.5-25.6-25.6-25.6h-127.1c-1.1-5.6-1.1-11.4 0-17.1h152.7c9.4 0 17.1 7.6 17.1 17.1zm49-11.8c-1.8 2.1-4.4 3.3-7.2 3.3h-24.7v-247.6l34 236.9c.4 2.6-.4 5.3-2.1 7.4z"/><path d="m162.1 375.5c28.3 0 51.2-22.9 51.2-51.2v-68.3c0-28.3-22.9-51.2-51.2-51.2s-51.2 22.9-51.2 51.2v68.3c.1 28.2 23 51.1 51.2 51.2zm-34.1-119.5c0-18.9 15.3-34.1 34.1-34.1s34.1 15.3 34.1 34.1v68.3c0 18.9-15.3 34.1-34.1 34.1s-34.1-15.3-34.1-34.1z"/><path d="m256 358.4c-4.7 0-8.5 3.8-8.5 8.5s3.8 8.5 8.5 8.5h68.3c4.7 0 8.5-3.8 8.5-8.5s-3.8-8.5-8.5-8.5h-25.6v-145.1c0-3.5-2.1-6.6-5.3-7.9s-6.9-.6-9.3 1.8l-34.1 34.2c-3.2 3.3-3.2 8.7.1 12s8.6 3.3 12 .1l19.6-19.6v124.5z"/><path d="m324.3 401.1h-196.3c-4.7 0-8.5 3.8-8.5 8.5s3.8 8.5 8.5 8.5h196.3c4.7 0 8.5-3.8 8.5-8.5s-3.8-8.5-8.5-8.5z"/></g></svg>