<svg enable-background="new 0 0 512 512" viewBox="0 0 512 512" xmlns="http://www.w3.org/2000/svg"><path d="m471.6 354.6h-14.3c-1.2-6.9-7.8-12.2-15.9-12.2h-16.1v-4.5c0-7.9-6.4-14.4-14.4-14.4h-37.7c-7.9 0-14.4 6.4-14.4 14.4v38.7c-16.2 8.4-29 12.6-38.1 12.6-.1 0-.3 0-.4 0v-144.7h.4c10.2 0 22.7-3.6 38.1-10.9v42.2c0 7.9 6.4 14.4 14.4 14.4h37.8c7.9 0 14.4-6.4 14.4-14.4v-4.5h16.1c8.9 0 16.1-6.4 16.1-14.4v-60c0-7.9-7.2-14.4-16.1-14.4h-16.1v-4.5c0-7.9-6.4-14.4-14.4-14.4h-37.7c-7.9 0-14.4 6.4-14.4 14.4v38.7c-16.2 8.4-29 12.6-38.1 12.6-.1 0-.3 0-.4 0v-68.6c0-4.1-3.4-7.5-7.5-7.5s-7.5 3.4-7.5 7.5v66.6c-5.6-1.7-9.8-4.2-14.5-6.9-.8-.5-1.5-.9-2.3-1.4v-142.3c4.6 2.5 9.9 4.9 16.8 6.4v44.7c0 4.1 3.4 7.5 7.5 7.5s7.5-3.4 7.5-7.5v-43.1h.4c10.2 0 22.7-3.6 38.1-10.9v42.2c0 7.9 6.4 14.4 14.4 14.4h37.7c7.9 0 14.4-6.4 14.4-14.4v-97.6c0-7.9-6.4-14.4-14.4-14.4h-37.7c-7.9 0-14.4 6.4-14.4 14.4v38.7c-16.2 8.4-29 12.6-38.1 12.6-.1 0-.3 0-.4 0v-47.9c0-12-9.8-21.8-21.8-21.8h-3.3c-12 0-21.8 9.8-21.8 21.8v30.7c-5.5-1.7-12-2.8-20.2-2.8-8 0-14.4 1.1-19.7 2.7v-30.6c.1-12-9.6-21.8-21.6-21.8h-3.3c-12 0-21.8 9.8-21.8 21.8v47.9c-.3 0-.6 0-.9 0-8 0-19.9-3.7-33-10.3v-41c0-7.9-6.4-14.4-14.4-14.4h-37.6c-7.9 0-14.4 6.4-14.4 14.4v97.6c0 7.9 6.4 14.4 14.4 14.4h37.7c7.9 0 14.4-6.4 14.4-14.4v-40c10.4 4.7 22.5 8.7 33 8.7h.9v144.8c-.3 0-.6 0-.9 0-8 0-19.9-3.7-33-10.3v-41c0-7.9-6.4-14.4-14.4-14.4h-37.7c-7.9 0-14.4 6.4-14.4 14.4v4.5h-16c-8.9 0-16.1 6.4-16.1 14.4v60c0 7.9 7.2 14.4 16.1 14.4h16.1v4.5c0 7.9 6.4 14.4 14.4 14.4h37.7c7.9 0 14.4-6.4 14.4-14.4v-40c10.4 4.7 22.5 8.7 33 8.7h.9v46.8c0 4.1 3.4 7.5 7.5 7.5s7.5-3.4 7.5-7.5v-48.4c6.8-1.5 12.1-4 16.8-6.6v142.4c-.9.5-1.9 1.1-2.8 1.6-4.5 2.7-8.7 5.1-14 6.8v-63.2c0-4.1-3.4-7.5-7.5-7.5s-7.5 3.4-7.5 7.5v65.3c-.3 0-.6 0-.9 0-8 0-19.9-3.7-33-10.3v-41c0-7.9-6.4-14.4-14.4-14.4h-37.8c-7.9 0-14.4 6.4-14.4 14.4v4.5h-16c-8 0-14.7 5.3-15.9 12.2h-14.3c-8.8 0-15.4 5.2-15.4 12.1v40.1c0 6.9 6.6 12.1 15.4 12.1h14.3c1.2 6.9 7.8 12.2 15.9 12.2h16.1v4.5c0 7.9 6.4 14.4 14.4 14.4h37.7c7.9 0 14.4-6.4 14.4-14.4v-40c10.4 4.7 22.5 8.7 33 8.7h.9v60.9h-127.7c-12.6 0-22.8 10.2-22.8 22.8v1.2c0 12.6 10.2 22.8 22.8 22.8h289.2c4.1 0 7.5-3.4 7.5-7.5s-3.4-7.5-7.5-7.5h-289.2c-4.3 0-7.8-3.5-7.8-7.8v-1.4c0-4.3 3.5-7.8 7.8-7.8h393.2c4.3 0 7.8 3.5 7.8 7.8v1.2c0 4.3-3.5 7.8-7.8 7.8h-71.3c-4.1 0-7.5 3.4-7.5 7.5s3.4 7.5 7.5 7.5h71.3c12.6 0 22.8-10.2 22.8-22.8v-1.2c0-12.6-10.2-22.8-22.8-22.8h-132.2v-60.9h.4c10.2 0 22.7-3.6 38.1-10.9v42.2c0 7.9 6.4 14.4 14.4 14.4h37.7c7.9 0 14.4-6.4 14.4-14.4v-4.5h16.1c8 0 14.7-5.3 15.9-12.2h14.3c8.8 0 15.4-5.2 15.4-12.1v-40.1c-.1-6.9-6.7-12.1-15.5-12.1zm-30.2-156.9c.5 0 .8.1 1.1.2v58.3c-.2.1-.6.2-1.1.2h-16.1v-58.7zm-67.5-18.9h36.4v96.3h-36.4zm0-159.8h36.4v96.3h-36.4zm-235.8 96.4h-36.4v-96.4h36.4zm-67.5 140.9c-.5 0-.8-.1-1.1-.2v-58.3c.2-.1.6-.2 1.1-.2h16.1v58.7zm67.5 18.9h-36.4v-96.3h36.4zm-98.1 128.7v-34.3h.4 14.1v34.3h-14.1c-.2 0-.3 0-.4 0zm30.6 12.2c-.5 0-.8-.1-1.1-.2v-58.3c.2-.1.6-.2 1.1-.2h16.1v58.7zm67.5 18.8h-36.4v-96.3h36.4zm167.3-192v144.3c-5.6-1.7-9.8-4.2-14.5-6.9-.8-.5-1.5-.9-2.3-1.4v-142.4c4.7 2.6 10 5 16.8 6.4zm-71.7 144.9c5.1-2.1 11.1-3.6 19.7-3.6 8.9 0 15 1.5 20.2 3.8v77.2h-39.9zm55-366c0-3.7 3-6.8 6.8-6.8h3.3c3.7 0 6.8 3 6.8 6.8v45.9c-5.6-1.7-9.8-4.2-14.5-6.9-.8-.5-1.5-.9-2.3-1.4zm-35.2 42.9c8.9 0 15 1.5 20.2 3.8v143.8c-5.5-1.7-12-2.8-20.2-2.8-8 0-14.4 1.1-19.7 2.7v-143.9c5-2.2 11-3.6 19.7-3.6zm-51.6-42.9c0-3.7 3-6.8 6.8-6.8h3.3c3.7 0 6.8 3 6.8 6.8v37.4c-.9.5-1.9 1.1-2.8 1.6-4.5 2.7-8.7 5.1-14 6.8v-45.8zm14 198.7c-4.5 2.7-8.7 5.1-14 6.8v-144.2c6.8-1.5 12.1-4 16.8-6.6v142.4c-.9.6-1.9 1.1-2.8 1.6zm17.8 7.6c5.1-2.1 11.1-3.6 19.7-3.6 8.9 0 15 1.5 20.2 3.8v143.8c-5.5-1.7-12-2.8-20.2-2.8-8 0-14.4 1.1-19.7 2.7zm-31.8 174.5c6.8-1.5 12.1-4 16.8-6.6v69.1h-16.8zm103.5 62.6h-16.8v-68.9c4.6 2.5 9.9 4.9 16.8 6.4zm68.5-126.6h36.4v96.3h-36.4zm68.6 77.3c-.2.1-.6.2-1.1.2h-16.1v-58.7h16.1c.5 0 .8.1 1.1.2zm29.5-12c-.1 0-.2 0-.4 0h-14.1v-34.3h14.1.4z" fill="#b6b6b6"/></svg>