<svg enable-background="new 0 0 512 512" viewBox="0 0 512 512" xmlns="http://www.w3.org/2000/svg"><g fill="#b6b6b6"><path d="m464 392.8v-24.8c0-4.4-3.6-8-8-8v-48c0-2.1-.8-4.2-2.3-5.7l-13.7-13.6v-86.9l12.9-12.9c9.4-9.4 9.4-24.6 0-33.9-9.4-9.4-24.6-9.4-33.9 0l-68 67.9c-9.4 9.4-9.4 24.6 0 33.9 9.4 9.4 24.6 9.4 33.9 0l7-7v106.2h-73.2l8.2-49.6c.9-5 .1-10.1-2.2-14.7l-28.7-57.6v-50.6l22.3 8.4c5.3 2 11 3.1 16.7 3.4h1c13.2 0 24-10.8 24-24v-39.3c0-13.3-10.7-24-24-24s-24 10.7-24 24v3.1l-20.4-10.2c-1.1-.6-2.3-.9-3.6-.9h-64c-1.2 0-2.5.3-3.6.9l-55.2 27.6c-8.2 4-13.3 12.4-13.3 21.5v14h-24v16h24v16c0 13.2 10.7 24 23.9 24 13.3 0 24-10.7 24.1-24v-27l16-8v49.6l-21.4 57.4h-50.5c-13.2 0-24 10.8-24 24v24c.1 13.2 10.8 23.9 24 24 13.2 0 24-10.8 24-24h46.7c8.6 0 16.6-4.6 20.9-12.1l21.3-37.3 15.1 20.1v45.3c-2.5 0-4.9 1.2-6.4 3.2l-21.6 28.8h-188c-22.1 0-40 17.9-40 40s17.9 40 40 40h400c22.1 0 40-17.9 40-40 0-19-13.4-35.4-32-39.2zm-47.2 31.2h-192.8v16h192.8c1.2 5.8 3.7 11.3 7.2 16h-336c3.6-4.7 6-10.2 7.2-16h64.8v-16h-64.8c-1.2-5.8-3.7-11.3-7.2-16h336c-3.5 4.7-6 10.2-7.2 16zm-43.1-174.5c-3.1 3.1-8.2 3.2-11.3.1s-3.2-8.2-.1-11.3c0 0 0 0 .1-.1l67.9-67.9c3.1-3.2 8.2-3.2 11.3-.1 3.2 3.1 3.2 8.2.1 11.3 0 0-.1.1-.1.1zm34.3-11.7 16-16v74.2c0 2.1.8 4.2 2.3 5.7l13.7 13.7v44.6h-32zm-91.6-78.6c4 2 8.8.4 10.7-3.6.6-1.1.8-2.3.8-3.6v-16c0-4.4 3.6-8 8-8s8 3.6 8 8v39.3c0 4.4-3.6 8-8 8-.1 0-.2 0-.3 0-4-.2-8-1-11.7-2.4l-27.9-10.4v-21.5zm-84.4-15.2h48v88h-48zm-43.6 40.8c-2.7 1.4-4.4 4.1-4.4 7.2v32c0 4.4-3.6 8-8 8s-8-3.6-8-8v-46.1c0-3 1.7-5.8 4.4-7.2l43.6-21.8v22.1zm-36.4 159.2c0 4.4-3.6 8-8 8-2.1 0-4.1-.8-5.5-2.3-.1-.1-.1-.1-.2-.2-1.5-1.5-2.3-3.5-2.3-5.5v-24c0-4.4 3.6-8 8-8h8zm134.4-36.8-24-32c-2.7-3.5-7.7-4.3-11.2-1.6-.9.7-1.6 1.5-2.1 2.4l-27.4 48c-1.4 2.5-4.1 4.1-7 4h-46.7v-16h32c3.3 0 6.3-2.1 7.5-5.2l22.1-58.8h53.5l27.5 54.9c.8 1.5 1 3.2.7 4.9l-8.6 52.2h-14.7v-48c0-1.7-.6-3.4-1.6-4.8zm-10.4 68.8h172v16h-184zm-244 56c0-13.3 10.7-24 24-24s24 10.7 24 24-10.7 24-24 24c-13.2 0-24-10.8-24-24zm424 24c-13.3 0-24-10.7-24-24s10.7-24 24-24 24 10.7 24 24c0 13.2-10.8 24-24 24z"/><path d="m176 424h32v16h-32z"/><path d="m88 360h16v16h-16z"/><path d="m56 360h16v16h-16z"/><path d="m24 360h16v16h-16z"/><path d="m96 192h16v16h-16z"/><path d="m64 192h16v16h-16z"/><path d="m152 264h16v16h-16z"/><path d="m104 264h32v16h-32z"/><path d="m256 112c22.1 0 40-17.9 40-40s-17.9-40-40-40-40 17.9-40 40 17.9 40 40 40zm0-64c13.3 0 24 10.7 24 24s-10.7 24-24 24-24-10.7-24-24c0-13.2 10.8-24 24-24z"/></g></svg>